<svg xmlns="http://www.w3.org/2000/svg" viewBox="0 0 187.33 103.87"><defs></defs><g id="Camada_2" data-name="Camada 2"><g id="Camada_1-2" data-name="Camada 1"><path class="cls-1" d="M0,99.39H185.17a2.22,2.22,0,0,1,2.16,2.25h0a2.21,2.21,0,0,1-2.16,2.23H0V99.39Z"></path><path class="cls-2" d="M23.59,0H164.24A21.22,21.22,0,0,1,185.4,21.15V97.78A1.44,1.44,0,0,1,184,99.21H3.87a1.44,1.44,0,0,1-1.44-1.43V21.15A21.22,21.22,0,0,1,23.59,0Z"></path><path class="cls-1" d="M23.59,0H164.24A21.22,21.22,0,0,1,185.4,21.15V33H2.43V21.15A21.22,21.22,0,0,1,23.59,0Z"></path><path class="cls-3" d="M33,99.21V62.89A10.92,10.92,0,0,0,22.15,52h0A10.92,10.92,0,0,0,11.26,62.89V99.21Z"></path><path class="cls-3" d="M63.9,99.21V62.89A10.92,10.92,0,0,0,53,52h0A10.92,10.92,0,0,0,42.12,62.89V99.21Z"></path><path class="cls-3" d="M145.71,99.21V62.89A10.91,10.91,0,0,0,134.82,52h0a10.92,10.92,0,0,0-10.88,10.89V99.21Z"></path><path class="cls-3" d="M176.57,99.21V62.89A10.92,10.92,0,0,0,165.68,52h0a10.92,10.92,0,0,0-10.89,10.89V99.21Z"></path><path class="cls-4" d="M27.84,0h2L26.33,3.55l3.88,3.88,3.88-3.88L30.54,0h2l2.53,2.53L37.64,0h2L36.13,3.55,40,7.43l3.88-3.88L40.34,0h2l2.53,2.53L47.44,0h2L45.93,3.55l3.88,3.88,3.88-3.88L50.14,0h2l2.53,2.53L57.24,0h2L55.73,3.55l3.88,3.88,3.88-3.88L59.94,0H62l2.52,2.53L67,0h2L65.53,3.55l3.88,3.88,3.88-3.88L69.74,0h2.05l2.52,2.53L76.84,0h2L75.33,3.55l3.88,3.88,3.88-3.88L79.55,0h2l2.53,2.53L86.64,0h2L85.14,3.55,89,7.43,92.9,3.55,89.35,0h2l2.53,2.53L96.44,0h2L94.94,3.55l3.88,3.88,3.88-3.88L99.15,0h2l2.53,2.53L106.24,0h2.05l-3.55,3.55,3.88,3.88,3.88-3.88L109,0h2l2.53,2.53L116.05,0h2l-3.55,3.55,3.88,3.88,3.88-3.88L118.75,0h2l2.53,2.53L125.85,0h2l-3.55,3.55,3.88,3.88,3.88-3.88L128.55,0h2l2.53,2.53L135.65,0h2l-3.55,3.55L138,7.43l3.88-3.88L138.35,0h2.05l2.52,2.53L145.45,0h2l-3.55,3.55,3.88,3.88,3.88-3.88L148.15,0h2l2.52,2.53L155.25,0h2l-3.54,3.55,3.87,3.88,3.88-3.88L158,0h2l2.53,2.53L165,0c.63,0,1.26.07,1.88.15l-3.37,3.38,3.88,3.88,3.87-3.88L168.12.36a20.92,20.92,0,0,1,2.75.71l1.46,1.46.63-.64c.46.21.92.44,1.36.68l-1,1,3.88,3.88,1.58-1.58c.35.33.68.67,1,1l-1.57,1.57,3.88,3.88.89-.89q.34.68.66,1.38l-.53.53,1.18,1.18a20.92,20.92,0,0,1,.71,2.75l-2.91-2.91-3.88,3.88,3.88,3.88L185.28,19c.07.64.11,1.28.12,1.93l-2.25,2.25,2.25,2.25v2l-3.27-3.27-3.88,3.88,3.88,3.88,3.27-3.27v2L183.15,33l.09.09H181l.1-.09-3.88-3.88L173.35,33l.09.09h-2.23l.09-.09-3.87-3.88L163.55,33l.09.09h-2.23l.09-.09-3.88-3.88L153.75,33l.09.09h-2.23l.09-.09-3.88-3.88L143.94,33l.1.09h-2.23l.09-.09L138,29.07,134.14,33l.09.09H132l.09-.09-3.88-3.88L124.34,33l.09.09h-2.22l.09-.09-3.88-3.88L114.54,33l.09.09H112.4l.1-.09-3.88-3.88L104.74,33l.09.09h-2.22l.09-.09-3.88-3.88L94.94,33,95,33H92.8l.1-.09L89,29.07,85.14,33l.09.09H83l.09-.09-3.88-3.88L75.33,33l.1.09H73.2l.09-.09-3.88-3.88L65.53,33l.1.09H63.4l.09-.09-3.88-3.88L55.73,33l.1.09H53.6l.09-.09-3.88-3.88L45.93,33,46,33H43.8l.09-.09L40,29.07,36.13,33l.09.09H34l.09-.09-3.88-3.88L26.33,33l.09.09H24.19l.1-.09-3.88-3.88L16.53,33l.09.09H14.39l.1-.09-3.88-3.88L6.73,33l.09.09H4.59L4.68,33,2.43,30.7v-2l3.28,3.27,3.88-3.88L5.71,24.17,2.43,27.44v-2l2.25-2.25L2.44,20.9c0-.65,0-1.29.11-1.93l3.16,3.16,3.88-3.88L5.71,14.37,2.8,17.28a19.46,19.46,0,0,1,.71-2.75l1.17-1.18-.52-.53c.2-.47.42-.93.65-1.38l.9.89L9.59,8.45,8,6.88c.33-.36.67-.7,1-1l1.59,1.58,3.88-3.88-1-1c.45-.24.9-.47,1.36-.68l.64.64L17,1.07A21.48,21.48,0,0,1,19.72.36L16.53,3.55l3.88,3.88,3.88-3.88L20.91.17Q21.84,0,22.8,0l2.51,2.51L27.84,0ZM6.73,13.35l3.88-3.88,3.88,3.88-3.88,3.88L6.73,13.35Zm4.9-4.9,3.88-3.88,3.88,3.88-3.88,3.88L11.63,8.45Zm-4.9,14.7,3.88-3.88,3.88,3.88L10.61,27,6.73,23.15Zm4.9-4.9,3.88-3.88,3.88,3.88-3.88,3.88-3.88-3.88Zm4.9-4.9,3.88-3.88,3.88,3.88-3.88,3.88-3.88-3.88Zm4.9-4.9,3.88-3.88,3.88,3.88-3.88,3.88L21.43,8.45Zm-9.8,19.6,3.88-3.88,3.88,3.88-3.88,3.88-3.88-3.88Zm4.9-4.9,3.88-3.88,3.88,3.88L20.41,27l-3.88-3.88Zm4.9-4.9,3.88-3.88,3.88,3.88-3.88,3.88-3.88-3.88Zm4.9-4.9,3.88-3.88,3.88,3.88-3.88,3.88-3.88-3.88Zm4.9-4.9,3.88-3.88L39,8.45l-3.88,3.88L31.23,8.45Zm-9.8,19.6,3.88-3.88,3.88,3.88-3.88,3.88-3.88-3.88Zm4.9-4.9,3.88-3.88,3.88,3.88L30.21,27l-3.88-3.88Zm4.9-4.9,3.88-3.88L39,18.25l-3.88,3.88-3.88-3.88Zm4.9-4.9L40,9.47l3.88,3.88L40,17.23l-3.88-3.88ZM41,8.45l3.88-3.88,3.88,3.88-3.88,3.88L41,8.45Zm-9.8,19.6,3.88-3.88L39,28.05l-3.88,3.88-3.88-3.88Zm4.9-4.9L40,19.27l3.88,3.88L40,27l-3.88-3.88Zm4.9-4.9,3.88-3.88,3.88,3.88-3.88,3.88L41,18.25Zm4.9-4.9,3.88-3.88,3.88,3.88-3.88,3.88-3.88-3.88Zm4.9-4.9,3.88-3.88,3.88,3.88-3.88,3.88L50.83,8.45ZM41,28.05l3.88-3.88,3.88,3.88-3.88,3.88L41,28.05Zm4.9-4.9,3.88-3.88,3.88,3.88L49.81,27l-3.88-3.88Zm4.9-4.9,3.88-3.88,3.88,3.88-3.88,3.88-3.88-3.88Zm4.9-4.9,3.88-3.88,3.88,3.88-3.88,3.88-3.88-3.88Zm4.9-4.9,3.88-3.88,3.88,3.88-3.88,3.88L60.63,8.45Zm-9.8,19.6,3.88-3.88,3.88,3.88-3.88,3.88-3.88-3.88Zm4.9-4.9,3.88-3.88,3.88,3.88L59.61,27l-3.88-3.88Zm4.9-4.9,3.88-3.88,3.88,3.88-3.88,3.88-3.88-3.88Zm4.9-4.9,3.88-3.88,3.88,3.88-3.88,3.88-3.88-3.88Zm4.9-4.9,3.88-3.88,3.88,3.88-3.88,3.88L70.43,8.45Zm-9.8,19.6,3.88-3.88,3.88,3.88-3.88,3.88-3.88-3.88Zm4.9-4.9,3.88-3.88,3.88,3.88L69.41,27l-3.88-3.88Zm4.9-4.9,3.88-3.88,3.88,3.88-3.88,3.88-3.88-3.88Zm4.9-4.9,3.88-3.88,3.88,3.88-3.88,3.88-3.88-3.88Zm4.91-4.9,3.88-3.88L88,8.45l-3.87,3.88L80.24,8.45Zm-9.81,19.6,3.88-3.88,3.88,3.88-3.88,3.88-3.88-3.88Zm4.9-4.9,3.88-3.88,3.88,3.88L79.21,27l-3.88-3.88Zm4.91-4.9,3.88-3.88L88,18.25l-3.87,3.88-3.88-3.88Zm4.9-4.9L89,9.47l3.88,3.88L89,17.23l-3.88-3.88ZM90,8.45l3.88-3.88L97.8,8.45l-3.88,3.88L90,8.45Zm-9.8,19.6,3.88-3.88L88,28.05l-3.88,3.88-3.88-3.88Zm4.9-4.9L89,19.27l3.88,3.88L89,27l-3.88-3.88Zm4.9-4.9,3.88-3.88,3.88,3.88-3.88,3.88L90,18.25Zm4.9-4.9,3.88-3.88,3.88,3.88-3.88,3.88-3.88-3.88Zm4.9-4.9,3.88-3.88,3.88,3.88-3.88,3.88L99.84,8.45ZM90,28.05l3.88-3.88,3.88,3.88-3.88,3.88L90,28.05Zm4.9-4.9,3.88-3.88,3.88,3.88L98.82,27l-3.88-3.88Zm4.9-4.9,3.88-3.88,3.88,3.88-3.88,3.88-3.88-3.88Zm4.9-4.9,3.88-3.88,3.88,3.88-3.88,3.88-3.88-3.88Zm4.9-4.9,3.88-3.88,3.88,3.88-3.88,3.88-3.88-3.88Zm-9.8,19.6,3.88-3.88,3.88,3.88-3.88,3.88-3.88-3.88Zm4.9-4.9,3.88-3.88,3.88,3.88L108.62,27l-3.88-3.88Zm4.9-4.9,3.88-3.88,3.88,3.88-3.88,3.88-3.88-3.88Zm4.9-4.9,3.88-3.88,3.88,3.88-3.88,3.88-3.88-3.88Zm4.9-4.9,3.88-3.88,3.88,3.88-3.88,3.88-3.88-3.88Zm-9.8,19.6,3.88-3.88,3.88,3.88-3.88,3.88-3.88-3.88Zm4.9-4.9,3.88-3.88,3.88,3.88L118.42,27l-3.88-3.88Zm4.9-4.9,3.88-3.88,3.88,3.88-3.88,3.88-3.88-3.88Zm4.9-4.9,3.88-3.88,3.88,3.88-3.88,3.88-3.88-3.88Zm4.9-4.9,3.88-3.88L137,8.45l-3.88,3.88-3.88-3.88Zm-9.8,19.6,3.88-3.88,3.88,3.88-3.88,3.88-3.88-3.88Zm4.9-4.9,3.88-3.88,3.88,3.88L128.22,27l-3.88-3.88Zm4.9-4.9,3.88-3.88L137,18.25l-3.88,3.88-3.88-3.88Zm4.9-4.9L138,9.47l3.88,3.88L138,17.23l-3.88-3.88Zm4.9-4.9,3.88-3.88,3.88,3.88-3.88,3.88L139,8.45Zm-9.8,19.6,3.88-3.88L137,28.05l-3.88,3.88-3.88-3.88Zm4.9-4.9L138,19.27l3.88,3.88L138,27l-3.88-3.88Zm4.9-4.9,3.88-3.88,3.88,3.88-3.88,3.88L139,18.25Zm4.9-4.9,3.88-3.88,3.88,3.88-3.88,3.88-3.88-3.88Zm4.9-4.9,3.88-3.88,3.88,3.88-3.88,3.88-3.88-3.88ZM139,28.05l3.88-3.88,3.88,3.88-3.88,3.88L139,28.05Zm4.9-4.9,3.88-3.88,3.88,3.88L147.82,27l-3.88-3.88Zm4.9-4.9,3.88-3.88,3.88,3.88-3.88,3.88-3.88-3.88Zm4.91-4.9,3.87-3.88,3.88,3.88-3.88,3.88-3.87-3.88Zm4.89-4.9,3.89-3.88,3.88,3.88-3.88,3.88-3.89-3.88Zm-9.8,19.6,3.88-3.88,3.88,3.88-3.88,3.88-3.88-3.88Zm4.91-4.9,3.87-3.88,3.88,3.88L157.62,27l-3.87-3.88Zm4.89-4.9,3.89-3.88,3.88,3.88-3.88,3.88-3.89-3.88Zm4.91-4.9,3.88-3.88,3.87,3.88-3.87,3.88-3.88-3.88Zm4.9-4.9,3.88-3.88,3.88,3.88-3.88,3.88-3.88-3.88Zm-9.81,19.6,3.89-3.88,3.88,3.88-3.88,3.88-3.89-3.88Zm4.91-4.9,3.88-3.88,3.87,3.88L167.43,27l-3.88-3.88Zm4.9-4.9,3.88-3.88,3.88,3.88-3.88,3.88-3.88-3.88Zm4.9-4.9,3.88-3.88,3.88,3.88-3.88,3.88-3.88-3.88Zm-4.9,14.7,3.88-3.88,3.88,3.88-3.88,3.88-3.88-3.88Zm4.9-4.9,3.88-3.88,3.88,3.88L177.23,27l-3.88-3.88Z"></path><path class="cls-3" d="M72.72,102.28h42.39V34.35a21.2,21.2,0,0,0-42.39,0v67.93Z"></path><path class="cls-1" d="M81.21,102.28h25.42V34.35a12.71,12.71,0,1,0-25.42,0v67.93Z"></path><path class="cls-5" d="M82.38,102.28h3.47l-.71-.72L89,97.68l3.88,3.88-.72.72h3.47l-.71-.72,3.88-3.88,3.88,3.88-.72.72h3.48l-.72-.72,1.89-1.89v-2l-2.91,2.91-3.88-3.88,3.88-3.88,2.91,2.91v-2l-1.89-1.89,1.89-1.89v-2l-2.91,2.91-3.88-3.88L103.72,83l2.91,2.91v-2L104.74,82l1.89-1.89V78l-2.91,2.91-3.88-3.88,3.88-3.88,2.91,2.91v-2l-1.89-1.89,1.89-1.89v-2l-2.91,2.91-3.88-3.88,3.88-3.88,2.91,2.91V64.24l-1.89-1.89,1.89-1.88v-2l-2.91,2.92-3.88-3.89,3.88-3.88,2.91,2.91v-2l-1.89-1.88,1.89-1.89V48.62l-2.91,2.91-3.88-3.88,3.88-3.88,2.91,2.91v-2l-1.89-1.89,1.89-1.89v-2l-2.91,2.91-3.88-3.88L103.72,34l2.91,2.91v-2L104.74,33l1.54-1.54a12.26,12.26,0,0,0-.49-1.56l-2.07,2.08-3.88-3.88,2.85-2.86a14.15,14.15,0,0,0-1.09-.94L98.82,27l-3.88-3.88,1.29-1.29a12.33,12.33,0,0,0-1.84-.2l-.47.47-.48-.47a12.48,12.48,0,0,0-1.84.2l1.3,1.29L89,27l-2.78-2.78a14.31,14.31,0,0,0-1.1.94L88,28.05l-3.88,3.88L82,29.85a12.21,12.21,0,0,0-.48,1.56L83.09,33l-1.88,1.89v2L84.12,34,88,37.85l-3.88,3.88-2.91-2.91v2l1.88,1.89-1.88,1.89v2l2.91-2.91L88,47.65l-3.88,3.88-2.91-2.91v2.05l1.88,1.89-1.88,1.88v2l2.91-2.91L88,57.45l-3.88,3.89-2.91-2.92v2l1.88,1.88-1.88,1.89v2.05l2.91-2.91L88,67.26l-3.88,3.88-2.91-2.91v2l1.88,1.89-1.88,1.89v2l2.91-2.91L88,77.06l-3.88,3.88L81.21,78v2L83.09,82l-1.88,1.88v2L84.12,83,88,86.86l-3.88,3.88-2.91-2.91v2l1.88,1.89-1.88,1.89v2l2.91-2.91L88,96.66l-3.88,3.88-2.91-2.91v2l1.88,1.89-.71.72ZM85.14,33,89,29.07,92.9,33,89,36.83,85.14,33Zm4.9-4.9,3.88-3.88,3.88,3.88-3.88,3.88L90,28.05Zm-4.9,14.7L89,38.87l3.88,3.88L89,46.63l-3.88-3.88Zm4.9-4.9L93.92,34l3.88,3.88-3.88,3.88L90,37.85Zm4.9-4.9,3.88-3.88L102.7,33l-3.88,3.88L94.94,33Zm-9.8,19.61L89,48.67l3.88,3.89L89,56.43l-3.88-3.87ZM90,47.65l3.88-3.88,3.88,3.88-3.88,3.88L90,47.65Zm4.9-4.9,3.88-3.88,3.88,3.88-3.88,3.88-3.88-3.88Zm-9.8,19.6L89,58.47l3.88,3.88L89,66.24l-3.88-3.89Zm4.9-4.9,3.88-3.88,3.88,3.88-3.88,3.89L90,57.45Zm4.9-4.89,3.88-3.89,3.88,3.89-3.88,3.87-3.88-3.87Zm-9.8,19.6L89,68.28l3.88,3.88L89,76l-3.88-3.87Zm4.9-4.9,3.88-3.88,3.88,3.88-3.88,3.88L90,67.26Zm4.9-4.91,3.88-3.88,3.88,3.88-3.88,3.89-3.88-3.89ZM85.14,82,89,78.08,92.9,82,89,85.84,85.14,82Zm4.9-4.9,3.88-3.88,3.88,3.88-3.88,3.88L90,77.06Zm4.9-4.9,3.88-3.88,3.88,3.88L98.82,76l-3.88-3.87Zm-9.8,19.6L89,87.88l3.88,3.88L89,95.64l-3.88-3.88Zm4.9-4.9L93.92,83l3.88,3.88-3.88,3.88L90,86.86Zm4.9-4.9,3.88-3.88L102.7,82l-3.88,3.88L94.94,82ZM90,96.66l3.88-3.88,3.88,3.88-3.88,3.88L90,96.66Zm4.9-4.9,3.88-3.88,3.88,3.88-3.88,3.88-3.88-3.88Z"></path></g></g></svg>