<svg xmlns="http://www.w3.org/2000/svg" viewBox="0 0 155.34 460.47"><defs></defs><g id="Camada_2" data-name="Camada 2"><g id="Camada_1-2" data-name="Camada 1"><rect class="cls-1" x="1.26" width="154.08" height="153.85"></rect><rect class="cls-1" x="1.26" y="152.93" width="154.08" height="153.85"></rect><path class="cls-2" d="M155.24,246.53V460.47H0V246.53H31.87c6.6-17.63,24.59-30.28,45.75-30.28s39.15,12.65,45.74,30.28Z"></path><path class="cls-3" d="M51.63,351.33H52A37.7,37.7,0,0,1,89.7,389v71.43a0,0,0,0,1,0,0H14.2a0,0,0,0,1,0,0V388.75A37.42,37.42,0,0,1,51.63,351.33Z"></path><path class="cls-3" d="M32,270.13h0A18.87,18.87,0,0,1,50.89,289v42a0,0,0,0,1,0,0H14.1a0,0,0,0,1,0,0v-43A17.92,17.92,0,0,1,32,270.13Z"></path><path class="cls-3" d="M77.18,270.13h0A18.87,18.87,0,0,1,96.05,289v42a0,0,0,0,1,0,0H59.26a0,0,0,0,1,0,0v-43A17.92,17.92,0,0,1,77.18,270.13Z"></path><path class="cls-3" d="M121.83,270.13h0A18.87,18.87,0,0,1,140.7,289v42a0,0,0,0,1,0,0H103.9a0,0,0,0,1,0,0v-43A17.92,17.92,0,0,1,121.83,270.13Z"></path><path class="cls-3" d="M122.26,350.94h0a18.87,18.87,0,0,1,18.87,18.87v42a0,0,0,0,1,0,0h-36.8a0,0,0,0,1,0,0v-43A17.92,17.92,0,0,1,122.26,350.94Z"></path><path class="cls-4" d="M107.61,52A13,13,0,0,0,89.34,52l-6.53,6.53a2.92,2.92,0,0,1-4.1,0L72.18,52A13,13,0,0,0,53.91,70.36l24.8,24.81a2.92,2.92,0,0,0,4.1,0l24.8-24.81a13,13,0,0,0,0-18.33Z"></path><path class="cls-4" d="M104.2,105.13a11.34,11.34,0,0,0-16,0l-5.7,5.7a2.55,2.55,0,0,1-3.58,0l-5.7-5.7a11.31,11.31,0,0,0-15.95,16L79,142.79a2.55,2.55,0,0,0,3.58,0l21.65-21.66a11.35,11.35,0,0,0,0-16Z"></path><path class="cls-4" d="M97.51,151.82a8.11,8.11,0,0,0-11.4,0L82,155.86a1.82,1.82,0,0,1-2.56,0l-4.07-4.07A8.08,8.08,0,0,0,64,163.25l15.46,15.47a1.8,1.8,0,0,0,2.56,0l15.47-15.47a8.11,8.11,0,0,0,0-11.43Z"></path></g></g></svg>