<svg xmlns="http://www.w3.org/2000/svg" viewBox="0 0 529.88 191.69"><defs></defs><g id="Camada_2" data-name="Camada 2"><g id="Camada_1-2" data-name="Camada 1"><path class="cls-1" d="M201.43,95.46a52.1,52.1,0,0,1,51.94,51.94v39.8H236V147.4a34.59,34.59,0,1,0-69.17,0v39.8H149.48V147.4a52.1,52.1,0,0,1,52-51.94Z"></path><polygon class="cls-1" points="131.12 187.2 152.75 29 193.6 34.58 172.74 187.2 131.12 187.2 131.12 187.2"></polygon><polygon class="cls-2" points="162.58 47.92 175.94 65.53 177.58 67.68 175.43 69.31 159.98 81.05 171.71 96.5 173.34 98.65 171.19 100.28 155.74 112.02 167.48 127.46 169.11 129.62 166.96 131.25 151.51 142.98 163.25 158.44 164.88 160.59 162.73 162.22 145.13 175.59 143.49 173.44 161.09 160.07 149.36 144.62 147.73 142.47 149.88 140.83 165.33 129.1 153.59 113.65 151.96 111.5 154.11 109.86 169.56 98.13 157.83 82.68 156.19 80.53 158.34 78.9 173.79 67.16 160.43 49.56 162.58 47.92 162.58 47.92"></polygon><path class="cls-3" d="M294.26,94.9c82.45,118.94-82.44,118.94,0,0Z"></path><path class="cls-4" d="M294.26,40A21.76,21.76,0,1,1,272.5,61.76,21.76,21.76,0,0,1,294.26,40Z"></path><path class="cls-5" d="M431.45,150.85H385.38V73a20.42,20.42,0,0,0-40.84,0V191.69h86.91a20.42,20.42,0,1,0,0-40.84Z"></path><polygon class="cls-6" points="518.66 92.79 520.64 110.87 432.15 120.57 414.08 122.56 412.1 104.48 404.38 34.07 402.39 16 420.47 14.02 508.95 4.31 510.93 22.38 422.45 32.09 425.32 58.26 513.8 48.55 515.79 66.63 427.3 76.33 430.17 102.5 518.66 92.79 518.66 92.79"></polygon><polygon class="cls-7" points="421.79 72.1 517.32 47.79 517.46 48.35 421.93 72.66 433.93 119.82 529.74 95.44 529.88 96 433.51 120.52 409.09 24.52 505.46 0 505.6 0.56 409.79 24.94 421.79 72.1 421.79 72.1"></polygon><path class="cls-4" d="M120.87,44.13A71.33,71.33,0,0,0,100,30a70.35,70.35,0,0,0-20-5.52v30a41.64,41.64,0,0,1,20,10.62Z"></path><path class="cls-4" d="M80,135.79v30a71,71,0,0,0,40.91-19.67L100,125.17A41.64,41.64,0,0,1,80,135.79Z"></path><path class="cls-4" d="M60,135.18a41.51,41.51,0,0,1-20-12.57v36.5a70.58,70.58,0,0,0,20,6.31,71.48,71.48,0,0,0,11.22.88,72.59,72.59,0,0,0,8.77-.53v-30a42.22,42.22,0,0,1-8.77.92A41.52,41.52,0,0,1,60,135.18Z"></path><path class="cls-4" d="M60,24.81a70.58,70.58,0,0,0-20,6.31V67.61A41.48,41.48,0,0,1,71.19,53.52a42.22,42.22,0,0,1,8.77.92v-30a72.58,72.58,0,0,0-8.77-.54A71.48,71.48,0,0,0,60,24.81Z"></path><path class="cls-4" d="M0,95v.23a70.94,70.94,0,0,0,20,49.34h0a71.28,71.28,0,0,0,20,14.54v-36.5a41.59,41.59,0,0,1,0-55V31.12A71.28,71.28,0,0,0,0,95Z"></path></g></g></svg>