<svg xmlns="http://www.w3.org/2000/svg" viewBox="0 0 155.04 306.38"><defs></defs><g id="Camada_2" data-name="Camada 2"><g id="Camada_1-2" data-name="Camada 1"><rect class="cls-1" width="155.04" height="153.85"></rect><rect class="cls-1" y="152.53" width="155.04" height="153.85"></rect><polygon class="cls-2" points="36.88 299.88 119.14 299.88 119.14 0.32 36.88 0.32 36.88 299.88 36.88 299.88"></polygon><polygon class="cls-3" points="46.41 31.98 73.38 31.98 73.38 49.78 46.41 49.78 46.41 31.98 46.41 31.98"></polygon><polygon class="cls-3" points="46.41 57.76 73.38 57.76 73.38 75.56 46.41 75.56 46.41 57.76 46.41 57.76"></polygon><polygon class="cls-3" points="46.41 83.55 73.38 83.55 73.38 101.34 46.41 101.34 46.41 83.55 46.41 83.55"></polygon><polygon class="cls-3" points="46.41 109.33 73.38 109.33 73.38 127.12 46.41 127.12 46.41 109.33 46.41 109.33"></polygon><polygon class="cls-3" points="46.41 135.1 73.38 135.1 73.38 152.9 46.41 152.9 46.41 135.1 46.41 135.1"></polygon><polygon class="cls-3" points="46.41 160.89 73.38 160.89 73.38 178.68 46.41 178.68 46.41 160.89 46.41 160.89"></polygon><polygon class="cls-3" points="46.41 186.67 73.38 186.67 73.38 204.46 46.41 204.46 46.41 186.67 46.41 186.67"></polygon><polygon class="cls-3" points="46.41 212.45 73.38 212.45 73.38 230.24 46.41 230.24 46.41 212.45 46.41 212.45"></polygon><polygon class="cls-3" points="82.64 31.98 109.61 31.98 109.61 49.78 82.64 49.78 82.64 31.98 82.64 31.98"></polygon><polygon class="cls-3" points="82.64 57.76 109.61 57.76 109.61 75.56 82.64 75.56 82.64 57.76 82.64 57.76"></polygon><polygon class="cls-3" points="82.64 83.55 109.61 83.55 109.61 101.34 82.64 101.34 82.64 83.55 82.64 83.55"></polygon><polygon class="cls-3" points="82.64 109.33 109.61 109.33 109.61 127.12 82.64 127.12 82.64 109.33 82.64 109.33"></polygon><polygon class="cls-3" points="82.64 135.1 109.61 135.1 109.61 152.9 82.64 152.9 82.64 135.1 82.64 135.1"></polygon><polygon class="cls-3" points="82.64 160.89 109.61 160.89 109.61 178.68 82.64 178.68 82.64 160.89 82.64 160.89"></polygon><polygon class="cls-3" points="82.64 186.67 109.61 186.67 109.61 204.46 82.64 204.46 82.64 186.67 82.64 186.67"></polygon><polygon class="cls-3" points="82.64 212.45 109.61 212.45 109.61 230.24 82.64 230.24 82.64 212.45 82.64 212.45"></polygon><path class="cls-4" d="M27.73,238.11H128.29a3.46,3.46,0,0,1,3.45,3.45h0a3.47,3.47,0,0,1-3.45,3.46H27.73a3.47,3.47,0,0,1-3.45-3.46h0a3.47,3.47,0,0,1,3.45-3.45Z"></path><path class="cls-4" d="M27.73,251.83H128.29a3.46,3.46,0,0,1,3.45,3.45h0a3.47,3.47,0,0,1-3.45,3.46H27.73a3.47,3.47,0,0,1-3.45-3.46h0a3.46,3.46,0,0,1,3.45-3.45Z"></path><path class="cls-4" d="M27.73,265.54H128.29a3.46,3.46,0,0,1,3.45,3.46h0a3.46,3.46,0,0,1-3.45,3.45H27.73A3.47,3.47,0,0,1,24.28,269h0a3.47,3.47,0,0,1,3.45-3.46Z"></path><path class="cls-4" d="M27.73,279.26H128.29a3.46,3.46,0,0,1,3.45,3.45h0a3.46,3.46,0,0,1-3.45,3.45H27.73a3.46,3.46,0,0,1-3.45-3.45h0a3.46,3.46,0,0,1,3.45-3.45Z"></path><path class="cls-4" d="M27.73,293H128.29a3.47,3.47,0,0,1,3.45,3.46h0a3.47,3.47,0,0,1-3.45,3.46H27.73a3.47,3.47,0,0,1-3.45-3.46h0A3.47,3.47,0,0,1,27.73,293Z"></path></g></g></svg>