<svg xmlns="http://www.w3.org/2000/svg" viewBox="0 0 465.04 153.85"><defs></defs><g id="Camada_2" data-name="Camada 2"><g id="Camada_1-2" data-name="Camada 1"><rect class="cls-1" x="310" width="155.04" height="153.85"></rect><rect class="cls-1" x="155" width="155.04" height="153.85"></rect><rect class="cls-1" width="155.04" height="153.85"></rect><path class="cls-2" d="M114.81,12,113.1.32,103,14.68q-4.34,24.89-8.68,49.79L37.08,61.3,23.08,79l15.09.61-5.82,44.59,7.1,28.38h5.74V123.64l15.37-18.41H84.05L88.26,123l7.44,29.52H103l-3.21-28.38,16.38-41.22q-1.86-25.83-3.74-51.66l18.71-4.22V21.62Z"></path><path class="cls-3" d="M224.42,103.71h172A17.67,17.67,0,1,0,378.73,86V77.79A22.74,22.74,0,0,0,342,59.86a32.33,32.33,0,0,0-63.09,0c-14.62-11.46-36.78-1.35-36.78,17.93V86a17.67,17.67,0,1,0-17.67,17.69Z"></path></g></g></svg>