<svg xmlns="http://www.w3.org/2000/svg" viewBox="0 0 155.04 307.38"><defs></defs><g id="Camada_2" data-name="Camada 2"><g id="Camada_1-2" data-name="Camada 1"><polygon class="cls-1" points="0 0 0 153.53 0 153.85 0 307.38 155.04 307.38 155.04 153.85 155.04 153.53 155.04 0 0 0"></polygon><path class="cls-2" d="M111.76,148.54h-31v40.77H71.61V148.54h-31l-3.31,64c0,5.52,3.85,10.48,8.82,10.48h60.1c5,0,8.82-4.41,8.82-9.92ZM88.49,210.15H63.9v-.4h-.12v-8.82H88v0h.45Z"></path><path class="cls-2" d="M89.7,119.32H63.23c-10.47,0-19.85,8.27-21.5,19.85h68.92C109.55,128.14,100.73,119.32,89.7,119.32Z"></path><path class="cls-3" d="M48.27,232.85h55.61c8,0,13.58,6.61,14.55,14.55l7.36,60H26.36l7.36-60c1-7.94,6.55-14.55,14.55-14.55Z"></path><path class="cls-4" d="M118.3,247.94H34.23a8.59,8.59,0,0,0-8.57,8.57h0a8.59,8.59,0,0,0,8.57,8.57H118.3a8.58,8.58,0,0,0,8.56-8.57h0a8.59,8.59,0,0,0-8.56-8.57Z"></path></g></g></svg>