<svg xmlns="http://www.w3.org/2000/svg" viewBox="0 0 155.16 460.32"><defs></defs><g id="Camada_2" data-name="Camada 2"><g id="Camada_1-2" data-name="Camada 1"><polygon class="cls-1" points="0.07 0 0.07 153.53 0.07 153.85 0.07 306.47 0.07 307.38 0.07 460.32 155.12 460.32 155.12 307.38 155.12 306.47 155.12 153.85 155.12 153.53 155.12 0 0.07 0"></polygon><path class="cls-2" d="M62.14,435.78H60.76A21.66,21.66,0,0,1,41,423a6.28,6.28,0,0,1,5.72-8.86h0a5.54,5.54,0,0,1,5.14,3.53,9.56,9.56,0,0,0,8.86,6h1.38a9.53,9.53,0,0,0,9.53-9.53V298.89H83.76V414.17A21.61,21.61,0,0,1,62.14,435.78Z"></path><path class="cls-3" d="M0,345a77.58,77.58,0,0,1,77.58-77.58V345Z"></path><path class="cls-4" d="M77.58,345V267.46A77.58,77.58,0,0,1,155.16,345Z"></path><path class="cls-5" d="M0,267.46a77.58,77.58,0,0,1,77.58-77.58v77.58Z"></path><path class="cls-6" d="M77.58,267.46V189.88a77.58,77.58,0,0,1,77.58,77.58Z"></path><path class="cls-7" d="M0,189.88A77.58,77.58,0,0,1,77.58,112.3v77.58Z"></path><path class="cls-8" d="M77.58,189.88V112.3a77.58,77.58,0,0,1,77.58,77.58Z"></path><path class="cls-9" d="M112.21,81.85l-26.09,1.8-3.05-5.29,14.6-21.69C118.94,25,150.24,79.24,112.21,81.85Z"></path><path class="cls-10" d="M90.1,52.3,78.61,75.78h-6.1L61,52.3c-16.75-34.24,45.84-34.24,29.08,0Z"></path><path class="cls-9" d="M53.46,56.67,68.05,78.36l-3,5.28L38.92,81.85C.89,79.24,32.18,25,53.46,56.67Z"></path></g></g></svg>