<svg xmlns="http://www.w3.org/2000/svg" viewBox="0 0 418.1 106.49"><defs></defs><g id="Camada_2" data-name="Camada 2"><g id="Camada_1-2" data-name="Camada 1"><path class="cls-1" d="M365.81,79.38,321.48,26.07,280,23.23,236.37,0S185.8,21.88,174.59,28l-54.15-5.13L101.34,54.1,39,81.18,0,106.49l418.1-.56C410.93,102.62,376.07,84.92,365.81,79.38Zm-42.65-17L272.38,44.67,238.71,61.23,200.63,46.32l-42.5,27.6L138.81,57.36,102.93,76.68,41.66,86.06l63.48-27.59,18.21-29.81,52.44,5c8.46-5,48.57-23.37,60.16-27.6l42.51,22.63,40.29,2.76,43.6,52.44L398.78,101l-43.6-6.63Z"></path></g></g></svg>