<svg xmlns="http://www.w3.org/2000/svg" viewBox="0 0 94.3 148.35"><defs></defs><g id="Camada_2" data-name="Camada 2"><g id="Camada_1-2" data-name="Camada 1"><path class="cls-1" d="M94.3,18.39v130H0v-130H19.36C23.37,7.68,34.29,0,47.15,0S70.93,7.68,74.94,18.39Z"></path><path class="cls-2" d="M31.47,82.05h0a23,23,0,0,1,23,23v43.28a0,0,0,0,1,0,0H8.63a0,0,0,0,1,0,0V104.9A22.84,22.84,0,0,1,31.47,82.05Z"></path><path class="cls-2" d="M19.45,32.73h0A11.46,11.46,0,0,1,30.92,44.19V69.72a0,0,0,0,1,0,0H8.56a0,0,0,0,1,0,0V43.62A10.89,10.89,0,0,1,19.45,32.73Z"></path><path class="cls-2" d="M46.88,32.73h0A11.46,11.46,0,0,1,58.35,44.19V69.72a0,0,0,0,1,0,0H36a0,0,0,0,1,0,0V43.62A10.89,10.89,0,0,1,46.88,32.73Z"></path><path class="cls-2" d="M74,32.73h0A11.46,11.46,0,0,1,85.47,44.19V69.72a0,0,0,0,1,0,0H63.12a0,0,0,0,1,0,0V43.62A10.89,10.89,0,0,1,74,32.73Z"></path><path class="cls-2" d="M74.27,81.81h0A11.46,11.46,0,0,1,85.73,93.28v25.53a0,0,0,0,1,0,0H63.38a0,0,0,0,1,0,0V92.7A10.89,10.89,0,0,1,74.27,81.81Z"></path></g></g></svg>