<svg xmlns="http://www.w3.org/2000/svg" viewBox="0 0 112.61 234.77"><defs></defs><g id="Camada_2" data-name="Camada 2"><g id="Camada_1-2" data-name="Camada 1"><path class="cls-1" d="M0,168.92H52v50.17A6.91,6.91,0,0,1,45.1,226h-1a6.93,6.93,0,0,1-6.43-4.35,4,4,0,0,0-3.73-2.56,4.55,4.55,0,0,0-4.15,6.43,15.71,15.71,0,0,0,14.31,9.25h1a15.69,15.69,0,0,0,15.69-15.68V168.92h51.82A56.31,56.31,0,1,0,0,168.92Z"></path><path class="cls-1" d="M56.31,56.31A56.3,56.3,0,0,0,0,112.61H112.61A56.3,56.3,0,0,0,56.31,56.31Z"></path><path class="cls-1" d="M56.31,0A56.31,56.31,0,0,0,0,56.31H112.61A56.31,56.31,0,0,0,56.31,0Z"></path></g></g></svg>