<svg xmlns="http://www.w3.org/2000/svg" viewBox="0 0 185.92 398.81"><defs></defs><g id="Camada_2" data-name="Camada 2"><g id="Camada_1-2" data-name="Camada 1"><path class="cls-1" d="M184,64.61a6.67,6.67,0,0,0-2.22-1.54c-.78-.33-1.61-.5-2.41-.76A3.65,3.65,0,0,1,177,60.66c-.43-.82-.45-1.81-.91-2.62-.72-1.27-3.46-2-2.62-3.78.39-.85,1.21-1.41,1.63-2.24a4,4,0,0,0,.34-2.39,6.43,6.43,0,0,0-3.31-4.33c-.41-.26-.85-.47-1.28-.7a1.9,1.9,0,0,1-.52-.37c-.32-.39-.14-.79-.11-1.23a2,2,0,0,0-.79-1.6c-.57-.53-1.37-1.1-1.24-2a3.79,3.79,0,0,1,1.17-1.79,4.71,4.71,0,0,0,1.1-1.55,2.36,2.36,0,0,0-.24-1.92c-.48-1-1.08-1.94,0-2.79a5.41,5.41,0,0,1,3.18-1.05c.64-.06,1.4-.2,1.64-.9s-.3-1.65-.68-2.27a18.19,18.19,0,0,0-3.27-3.63,20.68,20.68,0,0,1-3.42-3.64,7.23,7.23,0,0,1-1-2.32,19.92,19.92,0,0,1-.29-3.45,6.49,6.49,0,0,0-2-4.66A8.86,8.86,0,0,0,161.9,7.9a31.19,31.19,0,0,0-4.7-2.57c-2.46-1-5.12-.81-7.68-1.34-4.3-.9-7.87-4.35-12.46-4a5.76,5.76,0,0,0-4.64,2.61c-1.56.4-1.91.91-1.78,2.64A4.45,4.45,0,0,1,127.82,10l-.27.1a4.48,4.48,0,0,0-3.09,4.39c0,.18,0,.35,0,.53,0,1.86-.11,3.72-.15,5.58a5.23,5.23,0,0,0,.1,1.18c.22,1,.51,2,.69,3.05a19.26,19.26,0,0,1,.29,2.62,26.31,26.31,0,0,1,0,3.32c-.24,3.37-.83,6.75-.73,10.11.07,2.43,1,4.83-.69,7a1.77,1.77,0,0,0-.19.71c-.6,2.89-1.39,5.75-1.73,8.67A8.08,8.08,0,0,1,119,62.75c-.53.47-1,2-.65,2.37,1.25,1.61,1,3,.54,4.87a37.36,37.36,0,0,0-1.16,13.9,4.5,4.5,0,0,1-1.58,4.17,4.82,4.82,0,0,0-1.52,4.31c.21,3.06.3,6.21-1.35,9-1.55,2.64-2.68,5.33-1.87,8.52.1.38-.68,1-1.15,1.49-.32.31-1,.36-1.17.69-.71,1.77-2.17,3.28-1.78,5.43a3.22,3.22,0,0,1-1.59,3.34c-1.72,1.22-2,2.79-1.59,4.86a37.89,37.89,0,0,1,.72,7.88,5.47,5.47,0,0,1-2.9,5.06,3.18,3.18,0,0,0-1.62,2c-.27,3.07-.27,6.16-.35,9.25a2.17,2.17,0,0,0,.25,1,7.79,7.79,0,0,1,.43,5.44,4.53,4.53,0,0,0-.06,2.72c1.32,2.28.19,4.08-.81,5.92-.54,1-1.52,1.76-1.87,2.77s-.79,2.69-.35,3.66c.79,1.73,0,2.68-.9,3.78a9.19,9.19,0,0,1-.95.92c-1.62,1.46-2.77,3.1-2.48,5.47a11.77,11.77,0,0,1-.07,2.65,2.74,2.74,0,0,1-.48,1.32c-1.22,1.59-2.55,3.08-3.73,4.69A22.41,22.41,0,0,0,86,195c-.5,1.28-.6,2.6-1.91,3.44A2.08,2.08,0,0,0,83.5,200,6.53,6.53,0,0,1,81,204.83a4.56,4.56,0,0,0-1.54,2.91c-.38,2.1-.93,2.56-3,2.47a1.76,1.76,0,0,0-2,1.11,6.58,6.58,0,0,0,.16,5.81,4.11,4.11,0,0,1-.06,4.3,1.65,1.65,0,0,0-.31,1.19c.62,1.89,1.32,3.76,2,5.62.34.9,1.21,1.93,1,2.65-.72,2.5-1.28,5.22-4,6.48-.56.25-1.27.66-1.44,1.16-.6,1.74-1,3.57-1.5,5.34a4.15,4.15,0,0,1-.93,1.82c-1.38,1.35-2.25,2.47-.87,4.85a5.38,5.38,0,0,1,.29,1.1,5.7,5.7,0,0,0,.71,1.89c1.47,1.75,1.18,3.25-1,3.89a3.42,3.42,0,0,0-2.52,2,9.42,9.42,0,0,0-.8,3.55,9.29,9.29,0,0,1-2.07,6.68,2.31,2.31,0,0,0-.24,2.07c.81,1.5,2.52.35,3.73.94.17.09.76-.69,1.15-1.09,0-.05,0-.21,0-.28a7.69,7.69,0,0,1,1-1.24,8.9,8.9,0,0,1,1.39-.78c-.17-.55-.32-1-.47-1.46l.49,0c0-.57.29-1.43,0-1.67-1.15-1-.83-2-.13-3,1.08-1.57,2-3.15,1.77-5.2-.16-1.32.57-1.81,1.85-1.87a3.19,3.19,0,0,0,2.08-.73,3.11,3.11,0,0,1,3.56-.91,8.67,8.67,0,0,1,2,1.47l-1.37,1.61-.48-.06c.26.56.37,1.29.8,1.64,2.12,1.71,2,3.19-.32,4.59a7.14,7.14,0,0,1-1,.64c-1.34.5-1.41,1.51-1.33,2.74a4.1,4.1,0,0,1-.46,2.15,22,22,0,0,1-2.12,3,1.08,1.08,0,0,0,.08,1.73c1,1,.57,3.57-.53,4.31l-2.4,1.64,2.84,2.74-1.17.25c-3.15.71-4,2.22-2.84,5.3a1.3,1.3,0,0,1,0,.85c-.51,1.37-1,2.76-2.51,3.4-1.32.55-2.11,1.34-1.13,2.86a1.59,1.59,0,0,1,.1,1c-.1.86-.35,1.71-.37,2.57a3.61,3.61,0,0,1-1.78,3.09c-.43-.62-1.12-1.17-1.15-1.76a5.83,5.83,0,0,0-1.35-3c-.64-.94-1.11-2-1.81-3.29L60,293.5a8.2,8.2,0,0,0-.86,2.08c-.14,1.22-.82,1.36-1.81,1.34s-1.9.11-3,.18A2.68,2.68,0,0,1,53,300.6a19.71,19.71,0,0,0-2.58,1.57c-.43.36-.52,1.11-.77,1.68.59.06,1.18.14,1.76.19s1.51-.16,1.66.11c.77,1.37,2.23,1.46,3.4,2a2.13,2.13,0,0,0,1.55.08c2.08-.73,3.72.12,4.13,2.23.33,1.7-.14,2.27-1.85,2.16-1.15-.08-1.64.42-1.43,1.57.06.31.14.62.21.93l-1.59.51c-.14,2.09-.14,2.14,1.71,2.26s3.58.1,5.37.17c2.81.11,3.35,1,2.05,3.93a16.75,16.75,0,0,1-2.51-1.14c-1.9-1.26-3.78-2-6.17-.21,1.05.89,2,1.7,3,2.54.22.2.48.47.49.72s-.35.66-.46.64c-1.64-.4-2,1.18-3,1.84a14.86,14.86,0,0,1-1.74.87,1.42,1.42,0,0,1,0-1,3.91,3.91,0,0,0-1-4.76c-.35-.3-.79-1-.67-1.27.57-1.29-.69-1.69-1-2.51a13.09,13.09,0,0,0-1.8.89c-.73.5-1.15,1.47-2.4.75-.82-.46-2,.84-1.46,1.64.78,1.27.05,1.88-.76,2.59-.24.2-.57.63-.5.82.16.41.49,1,.85,1.05,1.42.37,2.89.53,4.31.88.4.1.95.6,1,.93a3.63,3.63,0,0,1-.51,1.89c-.14.22-.86.23-1.25.12a24.09,24.09,0,0,1-2.29-1c-.83-.36-1.28-.09-1.38.77l3.15,2c-.6.8-1.07,1.41-1.52,2-.65.9-1.66,1.77-.11,2.92l-2.36.71,1.87,3a6.05,6.05,0,0,0-.71,6.43c.38-.49.78-.77.86-1.12.51-2.24,2.51-3.14,3.94-4.54.55-.55,2.6-.32,2.89.34a1.71,1.71,0,0,1-.63,2.42c-.4.24-1,.67-1,1,.06,1.72-1.18,2.73-2,4,0,.07,0,.19,0,.34l1,.67c1.29-1.27,2.5-1.84,3.29-1.24a10.33,10.33,0,0,1,4.12,6.13c.19.93-.12,1.93,1,2.49a1.17,1.17,0,0,1,.4,1c-.22,1.74-.51,3.47-.79,5.27l-2-.08c-.71,2.25-.7,2.21,1.33,3.1.4.17.62.77.93,1.17a4.15,4.15,0,0,1-1.47.24,21.74,21.74,0,0,1-2.59-.85c-.3.84-.51,1.42-.79,2.18l2.41.76c1.61.53,2.2,1.54,1.58,3.15a1.59,1.59,0,0,0,.59,2,3,3,0,0,1,1.32,2.47c0,.85.49,1.24,1.4,1.33,2.62.26,5.25.67,7.31-1.43a3.2,3.2,0,0,1,1,4.27,1.61,1.61,0,0,0,0,1.34c.75,1,1.63,1.93,2.45,2.87a11.23,11.23,0,0,1,2.94-.33c2,.3,3,1.83,3.51,3.69.32,1.14,2,1.76,2.57.88,1.11-1.63,2.76-1,4.28-1.57.28,3.32,2.38,4.49,5.1,4.89,1.12.16,2.25.33,3.38.42a34.14,34.14,0,0,0,6.93,2.43c2.85.59,5.78.46,8.66.74a49.69,49.69,0,0,1,8.95,1.67c1.4.39,2.79.84,4.15,1.36a13,13,0,0,0,3.9,1.14,11.69,11.69,0,0,0,4-.74l.52-.09c1.12-.18,2.29-.3,3.41-.58l.23,0a.13.13,0,0,0,.17-.13l.33-.1a6.81,6.81,0,0,0,4.21-5.23,9,9,0,0,0-1.36-6.82,29.6,29.6,0,0,1-1.9-3,10.81,10.81,0,0,1-.67-4.22c-.32-4.46-4.16-7.57-8-9.2-1.88-.81-4.51-1.22-5.64-3.14-.6-1-.47-2.3-1.2-3.3a5.39,5.39,0,0,0-2.25-1.69c-5.33-2.31-12.11.68-16.89-3.24h.09c.22,0,.13-.33-.08-.31a1.63,1.63,0,0,1-.38,0l-.12,0a2.17,2.17,0,0,1-1.51-1.15c-.49-.93-.06-1.6.3-2.46a3.39,3.39,0,0,0-.84-3.5c-2.23-2.52-6.3-1.74-8.51-4.31-1.27-1.49-.85-3.39.26-4.84a25.27,25.27,0,0,1,3.82-3.33,8.21,8.21,0,0,0,1.48-1.63,9,9,0,0,0,.92-2.13,6.48,6.48,0,0,1,1.27-2.37,15.78,15.78,0,0,1,1.74-1.52,8.39,8.39,0,0,0,1.75-1.77,10.12,10.12,0,0,0,1.13-2.51c.72-2.17,1.42-4.35,2.13-6.52a.15.15,0,0,0,0-.16c2.06-3.38,4.1-6.91,4.14-11a12.55,12.55,0,0,1,.18-2.74,3.22,3.22,0,0,1,1.76-2.19,5.13,5.13,0,0,0,1.87-1.38,4.27,4.27,0,0,0,.66-2.14c.06-.87,0-1.73,0-2.6a3.18,3.18,0,0,1,.32-1.52c.3-.5.82-.64,1.3-.91,1.27-.73,1.19-2.35.56-3.5-.89-1.65-2.82-2.42-3.49-4.24s-.14-3.86.22-5.7a15.31,15.31,0,0,0,.38-3,12.64,12.64,0,0,0-.54-3.28c-.54-2-1.15-4.67.61-6.31.16-.14-.08-.35-.23-.23a12.06,12.06,0,0,0,.76-4.67c-.14-1.47-1-2.73-1.2-4.17-.28-1.64.69-2.94,1.25-4.39a14.23,14.23,0,0,0,.46-4.51c.16-3,2.34-4.84,3.66-7.3a10.6,10.6,0,0,0,1-3.53,6.58,6.58,0,0,1,.51-1.91,3,3,0,0,1,1.75-1.49,7.51,7.51,0,0,0,3.42-2.26c2.27-2.85,1-7.41.75-10.73a25.33,25.33,0,0,1-.22-4.6,17.19,17.19,0,0,1,4.54-9.7,15.84,15.84,0,0,1,2-1.77,17.54,17.54,0,0,0,2.17-1.66c1.24-1.26,1.33-3,1.18-4.68-.17-1.91-.52-3.77.08-5.65a8.6,8.6,0,0,1,3.55-4.44,8.6,8.6,0,0,0,2.19-2,7.43,7.43,0,0,0,1.06-2.43,16.19,16.19,0,0,0,.35-4.71,5.64,5.64,0,0,0,.15-3.45c-.41-1.51-1.54-2.57-2.41-3.82a4.89,4.89,0,0,1-.94-2.52c-.06-.91.07-1.83,0-2.74a10.26,10.26,0,0,0-1.59-3.91c-.77-1.44-1.21-3-.36-4.47a23.22,23.22,0,0,1,2.76-3.26,8.29,8.29,0,0,0,1.67-4c.29-1.71.39-3.55,1.37-5s2.55-2.47,3.31-4.11.59-3.71.39-5.54a9.85,9.85,0,0,1,.09-3,3.82,3.82,0,0,1,2-2.59,8.44,8.44,0,0,0,2.27-1.52,7.46,7.46,0,0,0,1.39-2.27c.75-1.78,1.11-3.75,2.15-5.4a12.22,12.22,0,0,1,4.78-4c3.27-1.78,7.74-3.76,8.34-8,.3-2.08-.92-3.78-1.57-5.65a3.46,3.46,0,0,1,.17-3.18,30.3,30.3,0,0,0,2-2.41,5.07,5.07,0,0,0,.56-3,6.64,6.64,0,0,0-1.27-2.9,3.47,3.47,0,0,1-.68-1.75,3.16,3.16,0,0,1,.9-1.91,10,10,0,0,1,2.35-2.09.21.21,0,0,0,.29.09,19.67,19.67,0,0,0,4.48-4.11,25.65,25.65,0,0,0,3.08-5.29,16.24,16.24,0,0,1,1.55-2.8,20.83,20.83,0,0,1,2.45-2.43,7,7,0,0,0,2.2-5A6.77,6.77,0,0,0,184,64.61Z"></path><path class="cls-1" d="M45.08,221.75c-.44-.32,0-1.75.07-1.82-.82-.18-1.14-1.64-1.14-1.56-.76.12-1.55-1-1.86-.68a7.22,7.22,0,0,1-3.27.48c-.8-.57-3.36,1.16-4.92.41s-2-.3-3-.27-.72-.86-1.3-1.26-.84.19-1.18-.81-1.59.24-1.85-1.06-1.62-1-2.08-.69-1.95-.38-1.94-.38c-1.19-2.09-4.64-1.24-5.07-1.79s-1.31.63-2.85-.34-3.54-.36-3.56.17a6.19,6.19,0,0,1-2.06,2.58c-.7.43-.83,1.87-1.84,2.59s1,1.25,0,2-.63,2.64-1.17,2.92A7.09,7.09,0,0,0,4.4,226c.12.76.56,1.08.15,1.9s-1.34,1.4-.86,2.71.1,3.27-.82,3.69-1.17.87-1.21,2-.5,1.19-.9,1.79.28.61-.53,2,.82,2.23.64,3,.38,1.68,2.69,2.53,2.19-.06,3.58-.85a6.55,6.55,0,0,0,2.27-2c.94-1,0-1.21.09-2.35s.13-1.44,1.7-1.07,2.21-.68,3-1.18-.1.45.58.56a7,7,0,0,0,2.89-.65,3.48,3.48,0,0,1,2-.61c1.36-.1,1.24-1,2.13-2.2s.53-.36,1.26-1.54,1-1.26,2.34-2,1.59-.24,2.38-1.19,1.56.74,2.61.86.25-.68,1-.65,3,.65,2.73-.45.89-1.54,2.13-2.25,0-.68,0-1.44,3.52-1.16,4.52-1.65,2.55.48,2.94.12A5,5,0,0,0,45,223.57C45.26,223,45.52,222.07,45.08,221.75Z"></path></g></g></svg>