<svg xmlns="http://www.w3.org/2000/svg" viewBox="0 0 158.42 340.53"><defs></defs><g id="Camada_2" data-name="Camada 2"><g id="Camada_1-2" data-name="Camada 1"><path class="cls-1" d="M144.85,210.61c17.41-23.1,13.41-49.24,12.6-54-4.49-.5-32.18-3.12-54.89,17.1A67.09,67.09,0,0,0,82.71,205.5V162.72c9.54.41,42-.38,62.14-27.17,17.41-23.11,13.41-49.25,12.6-54-4.49-.5-32.18-3.12-54.89,17.1a67.09,67.09,0,0,0-19.85,31.78V109.78c7.53-7.06,28.8-30.23,24.23-62.69C102.91,18.44,81.6,2.78,77.67,0c-3.53,2.82-25,20.55-26.73,50.91-1.72,29.67,16.6,49.89,25.15,57.64v23.19A67.39,67.39,0,0,0,55.86,98.65C33.15,78.43,5.46,81.05,1,81.55c-.81,4.75-4.81,30.89,12.6,54C34,162.7,67.06,163.14,76.09,162.71v44.1a67.35,67.35,0,0,0-20.23-33.09C33.15,153.5,5.46,156.12,1,156.62c-.81,4.75-4.81,30.89,12.6,54,20.45,27.16,53.49,27.6,62.52,27.16v43a67.39,67.39,0,0,0-20.23-33.09C33.15,227.46,5.46,230.08,1,230.58c-.81,4.75-4.81,30.89,12.6,54C34,311.73,67.06,312.17,76.09,311.74v28.79h6.62V311.75c9.54.41,42-.38,62.14-27.17,17.41-23.11,13.41-49.25,12.6-54-4.49-.5-32.18-3.12-54.89,17.1a67.09,67.09,0,0,0-19.85,31.78V237.79C92.25,238.19,124.67,237.41,144.85,210.61Z"></path></g></g></svg>