<svg xmlns="http://www.w3.org/2000/svg" viewBox="0 0 100.54 228.28"><defs></defs><g id="Camada_2" data-name="Camada 2"><g id="Camada_1-2" data-name="Camada 1"><rect class="cls-1" x="2.31" y="2.51" width="95.92" height="225.71"></rect><rect class="cls-2" y="79.93" width="100.54" height="3.4"></rect><rect class="cls-2" width="100.54" height="3.4"></rect><rect class="cls-2" y="156.46" width="100.54" height="3.4"></rect><rect class="cls-2" x="12.75" y="106.53" width="33.65" height="40.47"></rect><path class="cls-2" d="M46.4,101.76H12.74c6.41-1.86,29-8.72,33.66-10.2Z"></path><rect class="cls-2" x="54.14" y="106.53" width="33.65" height="40.47"></rect><path class="cls-2" d="M87.8,101.76H54.13c6.41-1.86,29-8.72,33.67-10.2Z"></path><rect class="cls-2" x="12.75" y="27.6" width="33.65" height="40.47"></rect><path class="cls-2" d="M46.4,22.83H12.74c6.41-1.86,29-8.72,33.66-10.2Z"></path><rect class="cls-2" x="54.14" y="27.6" width="33.65" height="40.47"></rect><path class="cls-2" d="M87.8,22.83H54.13c6.41-1.86,29-8.72,33.67-10.2Z"></path><rect class="cls-2" x="54.14" y="188.22" width="33.65" height="16.56"></rect><path class="cls-2" d="M87.8,183.45H54.13c6.41-1.86,29-8.72,33.67-10.2Z"></path><path class="cls-2" d="M29,173.13h0a17.09,17.09,0,0,1,17.09,17.09v38.06a0,0,0,0,1,0,0H12.81a0,0,0,0,1,0,0V189.36A16.23,16.23,0,0,1,29,173.13Z"></path></g></g></svg>