<svg xmlns="http://www.w3.org/2000/svg" viewBox="0 0 54.94 98.15"><defs></defs><g id="Camada_2" data-name="Camada 2"><g id="Camada_1-2" data-name="Camada 1"><path class="cls-1" d="M37.68,58.2c10.71-4,19-14,17-25.25L48.69,0H6.25L.31,33c-2,11.28,6.24,21.23,17,25.26a25.25,25.25,0,0,1,8.24,18.7V86a6.86,6.86,0,0,1-6,6.81H13.15a2.67,2.67,0,0,0-2.66,2.67v2.66h34V95.49a2.68,2.68,0,0,0-2.67-2.67H35.46a6.86,6.86,0,0,1-6-6.81v-9.1A25.28,25.28,0,0,1,37.68,58.2Z"></path><path class="cls-1" d="M9.83,0,3.77,33.58a15.7,15.7,0,0,0,.59,7.84c3.11,9.19,13.69,15.17,23.11,15.17a24.44,24.44,0,0,0,5-.53C42.7,53.93,53.2,44.9,51.16,33.58L45.11,0Z"></path></g></g></svg>